PathFileType	4	(x/y/z)	S08_M20_T15
DataRate	CameraRate	NumFrames	NumMarkers	Units	OrigDataRate	OrigDataStartFrame	OrigNumFrames
240	240	7	51	mm	240	64	509
Frame#	Time	Sternum			R.Acromium			L.Acromium			Top.Head			R.ASIS			L.ASIS			R.PSIS			L.PSIS			R.Great.Tro			L.Great.Tro			R.Iliac.Crest			L.Iliac.Crest			V.Sacral			R.Thigh.Upper.Post			R.Thigh.Lower.Ant			R.Thigh.Lower.Post			R.Thigh.Upper.Ant			R.Knee.Lat			R.Knee.Med			R.Shank.Upper.Post			R.Shank.Lower.Ant			R.Shank.Lower.Post			R.Shank.Upper.Ant			R.Ankle.Lat			R.Ankle.Med			R.Heel.Upper			R.Heel.Med			R.Heel.Lat			R.Toe.Lat			R.Toe.Med			R.Toe.Tip			L.Thigh.Upper.Post			L.Thigh.Lower.Ant			L.Thigh.Lower.Post			L.Thigh.Upper.Ant			L.Knee.Lat			L.Knee.Med			L.Shank.Upper.Post			L.Shank.Lower.Ant			L.Shank.Lower.Post			L.Shank.Upper.Ant			L.Ankle.Lat			L.Ankle.Med			L.Heel.Upper			L.Heel.Med			L.Heel.Lat			L.Toe.Lat			L.Toe.Med			L.Toe.Tip			Cervical.Spine			Back			
		X1	Y1	Z1	X2	Y2	Z2	X3	Y3	Z3	X4	Y4	Z4	X5	Y5	Z5	X6	Y6	Z6	X7	Y7	Z7	X8	Y8	Z8	X9	Y9	Z9	X10	Y10	Z10	X11	Y11	Z11	X12	Y12	Z12	X13	Y13	Z13	X14	Y14	Z14	X15	Y15	Z15	X16	Y16	Z16	X17	Y17	Z17	X18	Y18	Z18	X19	Y19	Z19	X20	Y20	Z20	X21	Y21	Z21	X22	Y22	Z22	X23	Y23	Z23	X24	Y24	Z24	X25	Y25	Z25	X26	Y26	Z26	X27	Y27	Z27	X28	Y28	Z28	X29	Y29	Z29	X30	Y30	Z30	X31	Y31	Z31	X32	Y32	Z32	X33	Y33	Z33	X34	Y34	Z34	X35	Y35	Z35	X36	Y36	Z36	X37	Y37	Z37	X38	Y38	Z38	X39	Y39	Z39	X40	Y40	Z40	X41	Y41	Z41	X42	Y42	Z42	X43	Y43	Z43	X44	Y44	Z44	X45	Y45	Z45	X46	Y46	Z46	X47	Y47	Z47	X48	Y48	Z48	X49	Y49	Z49	X50	Y50	Z50	X51	Y51	Z51	

64	0.2625	-1262.5	1228.3	308.53	-1386.9	1458.9	486.76	-1406.9	1485.3	150.57	-1388.9	1777.1	328.35	NaN	NaN	NaN	NaN	NaN	NaN	NaN	NaN	NaN	NaN	NaN	NaN	-1358.6	886.37	479.7	-1340.2	917.89	112.82	-1380.2	1071.6	463.63	-1359.4	1101.1	153.7	-1487.4	998.94	282.35	-1350.4	684.23	464.02	-1260.8	591.98	445.78	NaN	NaN	NaN	-1270.6	685.12	461.22	-1292.9	497.43	441.41	-1305	498.49	307.13	-1469.4	426.2	447.59	-1476.5	335.58	427.37	-1522.7	375.25	439.57	-1413.5	383.52	435.94	-1661.1	279.77	412.44	-1626.5	257.18	335.91	-1711.3	298.6	357.23	-1722.4	272.56	332.49	-1730.6	286.98	392.52	-1653.9	130.88	453.25	-1629.6	113.27	339.52	NaN	NaN	NaN	-1317.3	700.56	131.22	-1215.7	630.99	163.86	-1285.5	617.47	153.36	-1244.4	711.33	136.92	-1252.5	522.82	176.9	-1265.7	524.31	302.15	-1307.8	340.08	172.05	-1239.5	256.21	202.35	-1311.2	268.2	188.24	-1240.7	329.84	184.71	-1295.4	99.718	206.94	-1277	101.79	296.36	-1348.7	74.585	257.85	-1338.4	41.823	286.25	-1342.5	50.154	223.84	-1166.8	43.598	189.23	-1147.7	38.087	302.6	-1082.8	59.434	255.76	-1470	1516.4	316.52	-1504.2	1227.9	323.31
65	0.26667	-1257.4	1229.3	308.5	-1382	1459.8	486.7	-1401.6	1486.4	150.6	-1383.5	1777.9	328.69	NaN	NaN	NaN	NaN	NaN	NaN	NaN	NaN	NaN	NaN	NaN	NaN	-1352.6	887.36	479.64	-1335.2	918.57	112.88	-1375.2	1072.5	463.52	-1354.6	1102	153.6	-1482.4	999.66	282.34	-1342.1	685.2	463.97	-1250.9	594.12	445.6	NaN	NaN	NaN	-1262.5	686.99	461.11	-1282.6	499.05	441.19	-1295	500.13	306.88	-1458.1	426.29	447.58	-1464.3	335.7	427.48	-1511.2	374.79	439.8	-1402.1	384.15	435.91	-1648.7	278	412.82	-1614.1	255.91	336.28	-1700	295.57	357.98	-1710.8	269.11	333.33	-1718.9	283.63	393.32	-1638.3	129.48	454.23	-1614.1	112.1	340.32	NaN	NaN	NaN	-1314	701.13	131.09	-1213	630.78	163.75	-1282.9	617.79	153.22	-1241	711.33	136.89	-1250.3	522.78	176.93	-1264.1	524.41	302.04	-1306.6	340.27	171.96	-1238.7	256.14	202.46	-1310.3	268.41	188.23	-1239.5	329.71	184.73	-1295.1	99.859	207.09	-1276.9	101.75	296.31	-1348.6	74.694	257.87	-1338.4	41.881	286.24	-1342.4	50.263	223.83	-1166.7	43.566	189.21	-1147.7	37.944	302.74	-1082.6	59.107	255.76	-1464.8	1517.3	316.44	-1499.2	1228.8	323.03
66	0.27083	-1252.3	1230.2	308.47	-1377.1	1460.6	486.64	-1396.2	1487.4	150.64	-1378	1778.7	329.04	NaN	NaN	NaN	NaN	NaN	NaN	NaN	NaN	NaN	NaN	NaN	NaN	-1346.7	888.32	479.58	-1330.2	919.21	112.93	-1370.2	1073.5	463.43	-1349.8	1102.8	153.49	-1477.3	1000.3	282.36	-1333.9	686.2	463.94	-1241.2	596.25	445.41	NaN	NaN	NaN	-1254.4	688.88	461.01	-1272.5	500.7	440.96	-1285.1	501.8	306.64	-1446.8	426.29	447.59	-1452	335.77	427.6	-1499.7	374.21	440.06	-1390.7	384.72	435.88	-1636.3	276.02	413.25	-1601.7	254.46	336.66	-1688.5	292.31	358.78	-1699	265.44	334.21	-1707.1	280.03	394.17	-1622.6	127.93	455.19	-1598.4	110.82	341.09	NaN	NaN	NaN	-1310.6	701.69	130.96	-1210.3	630.55	163.66	-1280.3	618.1	153.09	-1237.7	711.31	136.86	-1248.1	522.75	176.97	-1262.6	524.5	301.96	-1305.5	340.45	171.89	-1237.9	256.08	202.57	-1309.4	268.61	188.21	-1238.3	329.6	184.76	-1294.8	100	207.25	-1276.8	101.72	296.29	-1348.5	74.811	257.89	-1338.4	41.926	286.24	-1342.4	50.372	223.82	-1166.6	43.535	189.2	-1147.6	37.819	302.9	-1082.6	58.798	255.76	-1459.7	1518.1	316.35	-1494.2	1229.8	322.75
67	0.275	-1247.2	1231.1	308.45	-1372.3	1461.5	486.59	-1390.9	1488.5	150.69	-1372.6	1779.5	329.37	NaN	NaN	NaN	NaN	NaN	NaN	NaN	NaN	NaN	NaN	NaN	NaN	-1340.7	889.27	479.53	-1325.3	919.8	112.98	-1365.2	1074.4	463.34	-1345	1103.6	153.38	-1472.3	1001	282.39	-1325.7	687.2	463.92	-1231.7	598.36	445.22	NaN	NaN	NaN	-1246.4	690.78	460.91	-1262.4	502.38	440.71	-1275.2	503.49	306.41	-1435.5	426.2	447.62	-1439.6	335.77	427.72	-1488.1	373.5	440.33	-1379.4	385.25	435.85	-1623.7	273.83	413.72	-1589.2	252.82	337.06	-1677	288.81	359.61	-1687.2	261.57	335.11	-1695.1	276.19	395.05	-1606.8	126.26	456.14	-1582.6	109.44	341.83	NaN	NaN	NaN	-1307.3	702.24	130.84	-1207.6	630.32	163.58	-1277.7	618.4	152.97	-1234.4	711.29	136.85	-1246	522.72	177.01	-1261	524.57	301.91	-1304.4	340.63	171.82	-1237.1	256.02	202.67	-1308.5	268.81	188.21	-1237.2	329.5	184.79	-1294.5	100.14	207.4	-1276.8	101.7	296.29	-1348.5	74.938	257.91	-1338.4	41.96	286.25	-1342.3	50.482	223.81	-1166.6	43.504	189.2	-1147.5	37.713	303.09	-1082.5	58.503	255.77	-1454.6	1519	316.26	-1489.2	1230.7	322.49
68	0.27917	-1242.1	1232	308.43	-1367.4	1462.3	486.54	-1385.6	1489.5	150.74	-1367.2	1780.3	329.7	NaN	NaN	NaN	-1239.9	1024.1	187.78	NaN	NaN	NaN	NaN	NaN	NaN	-1334.6	890.19	479.48	-1320.4	920.36	113.02	-1360.2	1075.3	463.26	-1340.2	1104.3	153.27	-1467.3	1001.6	282.44	-1317.6	688.21	463.91	-1222.5	600.47	445.03	NaN	NaN	NaN	-1238.4	692.7	460.81	-1252.5	504.08	440.44	-1265.5	505.2	306.2	-1424.2	426.03	447.67	-1427.2	335.72	427.85	-1476.6	372.67	440.62	-1368	385.73	435.84	-1611	271.44	414.25	-1576.5	251.01	337.47	-1665.2	285.09	360.49	-1675.2	257.5	336.04	-1683.1	272.1	395.97	-1590.8	124.45	457.06	-1566.6	107.96	342.55	NaN	NaN	NaN	-1304	702.78	130.73	-1205	630.07	163.52	-1275.1	618.7	152.86	-1231.1	711.25	136.84	-1244	522.69	177.05	-1259.4	524.64	301.89	-1303.4	340.81	171.78	-1236.4	255.96	202.78	-1307.7	269.01	188.23	-1236	329.4	184.83	-1294.2	100.29	207.55	-1276.7	101.69	296.32	-1348.4	75.074	257.93	-1338.3	41.984	286.27	-1342.2	50.593	223.8	-1166.5	43.474	189.2	-1147.5	37.624	303.31	-1082.4	58.222	255.79	-1449.4	1519.8	316.18	-1484.3	1231.6	322.24
69	0.28333	-1237.1	1232.9	308.41	-1362.6	1463.1	486.5	-1380.3	1490.5	150.79	-1361.8	1781	330.01	NaN	NaN	NaN	-1235.7	1024.7	187.44	NaN	NaN	NaN	NaN	NaN	NaN	-1328.6	891.09	479.44	-1315.6	920.87	113.05	-1355.2	1076.2	463.19	-1335.3	1105	153.15	-1462.3	1002.1	282.49	-1309.5	689.23	463.92	-1213.4	602.56	444.84	NaN	NaN	NaN	-1230.5	694.61	460.71	-1242.6	505.8	440.15	-1255.8	506.92	306	-1413	425.76	447.75	-1414.7	335.59	427.99	-1465.1	371.72	440.94	-1356.7	386.15	435.83	-1598.2	268.85	414.82	-1563.8	249.02	337.91	-1653.4	281.16	361.39	-1663	253.26	336.98	-1670.9	267.79	396.92	-1574.7	122.53	457.96	-1550.6	106.38	343.24	NaN	NaN	NaN	-1300.8	703.31	130.63	-1202.4	629.81	163.47	-1272.5	618.98	152.76	-1227.9	711.2	136.84	-1242	522.66	177.09	-1257.7	524.7	301.9	-1302.4	340.99	171.76	-1235.6	255.91	202.88	-1306.9	269.21	188.26	-1234.9	329.31	184.87	-1293.9	100.43	207.7	-1276.6	101.7	296.38	-1348.3	75.218	257.95	-1338.2	42.003	286.29	-1342.1	50.706	223.8	-1166.5	43.445	189.2	-1147.4	37.552	303.54	-1082.3	57.952	255.81	-1444.3	1520.6	316.09	-1479.4	1232.5	322
70	0.2875	-1232	1233.6	308.39	-1357.7	1463.8	486.47	-1375	1491.4	150.85	-1356.4	1781.7	330.32	NaN	NaN	NaN	-1231.3	1025.2	187.1	NaN	NaN	NaN	NaN	NaN	NaN	-1322.5	891.97	479.4	-1310.8	921.33	113.06	-1350.2	1077.1	463.12	-1330.5	1105.6	153.04	-1457.3	1002.6	282.56	-1301.5	690.25	463.94	-1204.6	604.64	444.64	NaN	NaN	NaN	-1222.7	696.52	460.61	-1232.9	507.53	439.85	-1246.3	508.65	305.81	-1401.7	425.4	447.85	-1402.2	335.39	428.14	-1453.5	370.66	441.26	-1345.4	386.52	435.82	-1585.2	266.08	415.43	-1550.9	246.87	338.36	-1641.4	277.03	362.31	-1650.8	248.84	337.93	-1658.5	263.26	397.88	-1558.5	120.51	458.83	-1534.4	104.72	343.91	NaN	NaN	NaN	-1297.5	703.82	130.54	-1199.8	629.55	163.45	-1269.9	619.26	152.67	-1224.6	711.13	136.85	-1240	522.63	177.13	-1256	524.76	301.94	-1301.4	341.17	171.75	-1234.9	255.86	202.98	-1306.1	269.4	188.3	-1233.9	329.24	184.93	-1293.7	100.58	207.84	-1276.5	101.71	296.46	-1348.2	75.372	257.97	-1338.1	42.017	286.33	-1342.1	50.821	223.8	-1166.4	43.416	189.21	-1147.4	37.495	303.78	-1082.2	57.692	255.84	-1439.2	1521.4	316.01	-1474.5	1233.4	321.77
